<mxfile host="app.diagrams.net" modified="2022-10-03T07:28:08.578Z" agent="5.0 (Windows NT 10.0; Win64; x64) AppleWebKit/537.36 (KHTML, like Gecko) Chrome/105.0.0.0 Safari/537.36" etag="noPERiDx8_vOjP3rPGX0" version="20.4.0" type="github">
  <diagram id="JhDBPopmTMuxLhtmZvlu" name="Page-1">
    <mxGraphModel dx="1422" dy="1862" grid="1" gridSize="10" guides="1" tooltips="1" connect="1" arrows="1" fold="1" page="1" pageScale="1" pageWidth="850" pageHeight="1100" math="0" shadow="0">
      <root>
        <mxCell id="0" />
        <mxCell id="1" parent="0" />
        <mxCell id="lG35vhVCdNkvIQNK5DTm-1" value="" style="rounded=1;whiteSpace=wrap;html=1;shadow=0;strokeColor=none;" vertex="1" parent="1">
          <mxGeometry x="30" y="-80" width="460" height="500" as="geometry" />
        </mxCell>
        <mxCell id="lG35vhVCdNkvIQNK5DTm-2" value="" style="rounded=1;whiteSpace=wrap;html=1;shadow=0;fillColor=#f5f5f5;fontColor=#333333;strokeColor=#666666;" vertex="1" parent="1">
          <mxGeometry x="50" y="30" width="420" height="360" as="geometry" />
        </mxCell>
        <mxCell id="lG35vhVCdNkvIQNK5DTm-3" value="Base Behaviour" style="rounded=1;whiteSpace=wrap;html=1;shadow=0;" vertex="1" parent="1">
          <mxGeometry x="180" y="90" width="150" height="60" as="geometry" />
        </mxCell>
        <mxCell id="lG35vhVCdNkvIQNK5DTm-5" value="Unomos FSM" style="text;html=1;strokeColor=none;fillColor=none;align=center;verticalAlign=middle;whiteSpace=wrap;rounded=0;fontSize=25;" vertex="1" parent="1">
          <mxGeometry x="170" y="-40" width="170" height="30" as="geometry" />
        </mxCell>
        <mxCell id="lG35vhVCdNkvIQNK5DTm-8" style="edgeStyle=orthogonalEdgeStyle;rounded=1;orthogonalLoop=1;jettySize=auto;html=1;exitX=1;exitY=0;exitDx=0;exitDy=0;entryX=0;entryY=0;entryDx=0;entryDy=0;fontSize=25;shape=flexArrow;fillColor=default;" edge="1" parent="1" source="lG35vhVCdNkvIQNK5DTm-6" target="lG35vhVCdNkvIQNK5DTm-7">
          <mxGeometry relative="1" as="geometry" />
        </mxCell>
        <mxCell id="lG35vhVCdNkvIQNK5DTm-6" value="Idle" style="ellipse;whiteSpace=wrap;html=1;aspect=fixed;shadow=0;fillColor=#d5e8d4;strokeColor=#82b366;" vertex="1" parent="1">
          <mxGeometry x="87.5" y="212" width="120" height="120" as="geometry" />
        </mxCell>
        <mxCell id="lG35vhVCdNkvIQNK5DTm-9" style="edgeStyle=orthogonalEdgeStyle;shape=flexArrow;rounded=1;orthogonalLoop=1;jettySize=auto;html=1;exitX=0;exitY=1;exitDx=0;exitDy=0;entryX=1;entryY=1;entryDx=0;entryDy=0;labelBackgroundColor=default;strokeColor=default;fontFamily=Helvetica;fontSize=25;fontColor=default;endArrow=classic;fillColor=default;" edge="1" parent="1" source="lG35vhVCdNkvIQNK5DTm-7" target="lG35vhVCdNkvIQNK5DTm-6">
          <mxGeometry relative="1" as="geometry" />
        </mxCell>
        <mxCell id="lG35vhVCdNkvIQNK5DTm-7" value="Talking" style="ellipse;whiteSpace=wrap;html=1;aspect=fixed;shadow=0;fillColor=#fff2cc;strokeColor=#d6b656;" vertex="1" parent="1">
          <mxGeometry x="312.5" y="212" width="120" height="120" as="geometry" />
        </mxCell>
        <mxCell id="lG35vhVCdNkvIQNK5DTm-10" value="Player initiates conversation" style="text;html=1;strokeColor=none;fillColor=none;align=center;verticalAlign=middle;whiteSpace=wrap;rounded=0;fontFamily=Helvetica;fontSize=12;fontColor=default;" vertex="1" parent="1">
          <mxGeometry x="210" y="190" width="90" height="30" as="geometry" />
        </mxCell>
        <mxCell id="lG35vhVCdNkvIQNK5DTm-11" value="Dialogue finishes" style="text;html=1;strokeColor=none;fillColor=none;align=center;verticalAlign=middle;whiteSpace=wrap;rounded=0;fontFamily=Helvetica;fontSize=12;fontColor=default;" vertex="1" parent="1">
          <mxGeometry x="210" y="330" width="90" height="30" as="geometry" />
        </mxCell>
      </root>
    </mxGraphModel>
  </diagram>
</mxfile>
